<?xml version="1.0" encoding="UTF-8" standalone="no"?>
<!-- Created with Inkscape (http://www.inkscape.org/) -->

<svg
   xmlns:dc="http://purl.org/dc/elements/1.1/"
   xmlns:cc="http://creativecommons.org/ns#"
   xmlns:rdf="http://www.w3.org/1999/02/22-rdf-syntax-ns#"
   xmlns:svg="http://www.w3.org/2000/svg"
   xmlns="http://www.w3.org/2000/svg"
   xmlns:sodipodi="http://sodipodi.sourceforge.net/DTD/sodipodi-0.dtd"
   xmlns:inkscape="http://www.inkscape.org/namespaces/inkscape"
   width="1024"
   height="1024"
   viewBox="0 0 1024 1024"
   id="svg2"
   version="1.1"
   inkscape:version="0.91 r13725"
   sodipodi:docname="foreground.svg"
   inkscape:export-filename="/home/sanexto/GitLab/kramo_mobile/assets/launcher/foreground.png"
   inkscape:export-xdpi="90"
   inkscape:export-ydpi="90">
  <defs
     id="defs4" />
  <sodipodi:namedview
     id="base"
     pagecolor="#ffffff"
     bordercolor="#666666"
     borderopacity="1.0"
     inkscape:pageopacity="0"
     inkscape:pageshadow="2"
     inkscape:zoom="0.35"
     inkscape:cx="267.78776"
     inkscape:cy="515.34256"
     inkscape:document-units="px"
     inkscape:current-layer="layer1"
     showgrid="false"
     units="px"
     inkscape:window-width="1366"
     inkscape:window-height="710"
     inkscape:window-x="0"
     inkscape:window-y="0"
     inkscape:window-maximized="1" />
  <metadata
     id="metadata7">
    <rdf:RDF>
      <cc:Work
         rdf:about="">
        <dc:format>image/svg+xml</dc:format>
        <dc:type
           rdf:resource="http://purl.org/dc/dcmitype/StillImage" />
        <dc:title />
      </cc:Work>
    </rdf:RDF>
  </metadata>
  <g
     inkscape:label="Capa 1"
     inkscape:groupmode="layer"
     id="layer1"
     transform="translate(0,-28.362161)">
    <path
       style="opacity:1;fill:#e91e63;fill-opacity:1;fill-rule:nonzero;stroke:none;stroke-opacity:1"
       d="m 328,724.36216 178.25,-89.12466 0,-5.74998 0,-49.28697 0,-0.002 -17.25,0 L 466.00001,540.36206 489,500.52551 l 17.25,0 0,-0.002 0,-49.28698 0,-5.74998 L 328,356.36216 401.6,503.56158 328,540.36145 401.6,577.1613 328,724.3615 Z M 517.75,635.2375 696,724.36216 622.4,577.16273 696,540.36287 622.4,503.56301 696,356.36358 l -178.25,89.12465 0,5.74998 0,49.28698 0,0.002 17.25,0 23.00001,39.83656 L 535,580.20023 l -17.25,0 0,0.002 0,49.28697 0,5.74998 z"
       id="path4155"
       inkscape:connector-curvature="0" />
  </g>
</svg>
