<?xml version="1.0" encoding="UTF-8" standalone="no"?>
<!-- Created with Inkscape (http://www.inkscape.org/) -->

<svg
   xmlns:dc="http://purl.org/dc/elements/1.1/"
   xmlns:cc="http://creativecommons.org/ns#"
   xmlns:rdf="http://www.w3.org/1999/02/22-rdf-syntax-ns#"
   xmlns:svg="http://www.w3.org/2000/svg"
   xmlns="http://www.w3.org/2000/svg"
   xmlns:sodipodi="http://sodipodi.sourceforge.net/DTD/sodipodi-0.dtd"
   xmlns:inkscape="http://www.inkscape.org/namespaces/inkscape"
   width="1024"
   height="1024"
   viewBox="0 0 1024 1024"
   id="svg2"
   version="1.1"
   inkscape:version="0.91 r13725"
   sodipodi:docname="icon.svg"
   inkscape:export-filename="/home/sanexto/GitLab/kramo_mobile/assets/launcher/icon.png"
   inkscape:export-xdpi="90"
   inkscape:export-ydpi="90">
  <defs
     id="defs4" />
  <sodipodi:namedview
     id="base"
     pagecolor="#ffffff"
     bordercolor="#666666"
     borderopacity="1.0"
     inkscape:pageopacity="0"
     inkscape:pageshadow="2"
     inkscape:zoom="0.35"
     inkscape:cx="44.203949"
     inkscape:cy="515.34256"
     inkscape:document-units="px"
     inkscape:current-layer="layer1"
     showgrid="false"
     units="px"
     inkscape:window-width="1366"
     inkscape:window-height="710"
     inkscape:window-x="0"
     inkscape:window-y="0"
     inkscape:window-maximized="1" />
  <metadata
     id="metadata7">
    <rdf:RDF>
      <cc:Work
         rdf:about="">
        <dc:format>image/svg+xml</dc:format>
        <dc:type
           rdf:resource="http://purl.org/dc/dcmitype/StillImage" />
        <dc:title />
      </cc:Work>
    </rdf:RDF>
  </metadata>
  <g
     inkscape:label="Capa 1"
     inkscape:groupmode="layer"
     id="layer1"
     transform="translate(0,-28.362161)">
    <rect
       style="opacity:0.97000002;fill:#ffffff;fill-opacity:1;fill-rule:nonzero;stroke:none;stroke-width:0.2;stroke-miterlimit:4;stroke-dasharray:none;stroke-opacity:1"
       id="rect4135"
       width="1024"
       height="1024"
       x="0"
       y="28.362162" />
    <path
       style="opacity:1;fill:#e91e63;fill-opacity:1;fill-rule:nonzero;stroke:none;stroke-width:0.2;stroke-miterlimit:4;stroke-dasharray:none;stroke-opacity:1"
       d="M 512,156.36214 A 384.42525,384 0 0 0 128,528.36213 l 191.7876,0 0,-98.85058 L 512,318.6595 l 192.2124,110.85205 0,98.85058 191.6118,0 A 384.42525,384 0 0 0 512,156.36214 Z m 0,273.14941 -96,55.42531 0,110.85056 96,55.4253 96.00001,-55.4253 0,-110.85056 L 512,429.51155 Z M 128.1758,552.36216 A 384.42525,384 0 0 0 512,924.36219 384.42525,384 0 0 0 896,552.36216 l -191.7876,0 0,98.85056 L 512,762.06478 319.7876,651.21272 l 0,-98.85056 -191.6118,0 z"
       id="path4134"
       inkscape:connector-curvature="0" />
  </g>
</svg>
