<?xml version="1.0" encoding="UTF-8" standalone="no"?>
<!-- Created with Inkscape (http://www.inkscape.org/) -->

<svg
   xmlns:dc="http://purl.org/dc/elements/1.1/"
   xmlns:cc="http://creativecommons.org/ns#"
   xmlns:rdf="http://www.w3.org/1999/02/22-rdf-syntax-ns#"
   xmlns:svg="http://www.w3.org/2000/svg"
   xmlns="http://www.w3.org/2000/svg"
   xmlns:sodipodi="http://sodipodi.sourceforge.net/DTD/sodipodi-0.dtd"
   xmlns:inkscape="http://www.inkscape.org/namespaces/inkscape"
   width="1024"
   height="1024"
   viewBox="0 0 1024 1024"
   id="svg2"
   version="1.1"
   inkscape:version="0.91 r13725"
   sodipodi:docname="icon.svg"
   inkscape:export-filename="/home/sanexto/GitLab/kramo_mobile/assets/launcher/icon.png"
   inkscape:export-xdpi="90"
   inkscape:export-ydpi="90">
  <defs
     id="defs4" />
  <sodipodi:namedview
     id="base"
     pagecolor="#ffffff"
     bordercolor="#666666"
     borderopacity="1.0"
     inkscape:pageopacity="0"
     inkscape:pageshadow="2"
     inkscape:zoom="0.35"
     inkscape:cx="386.23706"
     inkscape:cy="515.34256"
     inkscape:document-units="px"
     inkscape:current-layer="layer1"
     showgrid="false"
     units="px"
     inkscape:window-width="1366"
     inkscape:window-height="710"
     inkscape:window-x="0"
     inkscape:window-y="0"
     inkscape:window-maximized="1" />
  <metadata
     id="metadata7">
    <rdf:RDF>
      <cc:Work
         rdf:about="">
        <dc:format>image/svg+xml</dc:format>
        <dc:type
           rdf:resource="http://purl.org/dc/dcmitype/StillImage" />
        <dc:title />
      </cc:Work>
    </rdf:RDF>
  </metadata>
  <g
     inkscape:label="Capa 1"
     inkscape:groupmode="layer"
     id="layer1"
     transform="translate(0,-28.362161)"
     sodipodi:insensitive="true">
    <circle
       style="opacity:1;fill:#ffffff;fill-opacity:1;fill-rule:nonzero;stroke:none;stroke-width:0.2;stroke-miterlimit:4;stroke-dasharray:none;stroke-opacity:1"
       id="path4135"
       cx="512"
       cy="540.36218"
       r="512" />
    <path
       style="opacity:1;fill:#e91e63;fill-opacity:1;fill-rule:nonzero;stroke:none;stroke-width:0.2;stroke-miterlimit:4;stroke-dasharray:none;stroke-opacity:1"
       d="M 512,113.69563 A 427.139,426.6665 0 0 0 85.3335,527.0288 l 213.09725,0 0,-109.83394 L 512,294.02596 l 213.56925,123.1689 0,109.83394 212.90192,0 A 427.139,426.6665 0 0 0 512,113.69563 Z m 0,303.49923 -106.66663,61.58365 0,123.16725 L 512,663.5294 l 106.66664,-61.58364 0,-123.16725 L 512,417.19486 Z M 85.528833,553.69548 A 427.139,426.6665 0 0 0 512,967.02869 427.139,426.6665 0 0 0 938.6665,553.69548 l -213.09725,0 0,109.83392 L 512,786.6983 298.43075,663.5294 l 0,-109.83392 -212.901917,0 z"
       id="path4134"
       inkscape:connector-curvature="0" />
  </g>
</svg>
